<?xml version="1.0" standalone="no"?><!DOCTYPE svg PUBLIC "-//W3C//DTD SVG 1.1//EN" "http://www.w3.org/Graphics/SVG/1.1/DTD/svg11.dtd"><svg t="1556355362806" class="icon" style="" viewBox="0 0 1024 1024" version="1.1" xmlns="http://www.w3.org/2000/svg" p-id="15883" xmlns:xlink="http://www.w3.org/1999/xlink" width="200" height="200"><defs><style type="text/css"></style></defs><path d="M512 896c-212.096 0-384-171.904-384-384s171.904-384 384-384 384 171.904 384 384-171.904 384-384 384z m0-85.333333a298.666667 298.666667 0 1 0 0-597.333334 298.666667 298.666667 0 0 0 0 597.333334z m69.290667-341.333334l-99.2-97.578666a42.666667 42.666667 0 1 1 59.818666-60.842667l173.44 170.581333 0.085334 0.085334a42.666667 42.666667 0 0 1 0.512 60.330666l-0.597334 0.597334-173.44 170.581333a42.666667 42.666667 0 1 1-59.818666-60.842667L581.290667 554.666667H341.333333a42.666667 42.666667 0 0 1 0-85.333334h239.957334z" p-id="15884" fill="#ffffff"></path></svg>