<?xml version="1.0" standalone="no"?><!DOCTYPE svg PUBLIC "-//W3C//DTD SVG 1.1//EN" "http://www.w3.org/Graphics/SVG/1.1/DTD/svg11.dtd"><svg t="1556352630546" class="icon" style="" viewBox="0 0 1024 1024" version="1.1" xmlns="http://www.w3.org/2000/svg" p-id="7432" xmlns:xlink="http://www.w3.org/1999/xlink" width="200" height="200"><defs><style type="text/css"></style></defs><path d="M916.053333 185.6l-57.173333-23.893333v385.28l103.68-250.026667c17.493333-43.52-2.56-93.44-46.506667-111.36m-832 157.866667L295.68 853.333333a85.76 85.76 0 0 0 77.226667 53.76c11.093333 0 22.613333-2.133333 33.706666-6.826666l314.453334-130.133334c32-13.226667 51.626667-44.8 52.48-76.373333 0.426667-11.093333-1.706667-23.466667-5.546667-34.56L554.666667 149.333333a83.370667 83.370667 0 0 0-77.226667-53.333333c-11.093333 0-22.186667 2.56-32.853333 6.4L130.56 232.533333a85.077333 85.077333 0 0 0-46.506667 110.933334m689.066667-162.133334a85.333333 85.333333 0 0 0-85.333333-85.333333h-61.866667l147.2 355.84" fill="#8a8a8a" p-id="7433"></path></svg>