<?xml version="1.0" standalone="no"?><!DOCTYPE svg PUBLIC "-//W3C//DTD SVG 1.1//EN" "http://www.w3.org/Graphics/SVG/1.1/DTD/svg11.dtd"><svg t="1555124864224" class="icon" style="" viewBox="0 0 1024 1024" version="1.1" xmlns="http://www.w3.org/2000/svg" p-id="3300" xmlns:xlink="http://www.w3.org/1999/xlink" width="200" height="200"><defs><style type="text/css"></style></defs><path d="M984.615385 513.969231c0 261.907692-212.676923 474.584615-472.615385 474.584615S39.384615 775.876923 39.384615 513.969231 252.061538 39.384615 512 39.384615s472.615385 212.676923 472.615385 474.584616zM334.769231 295.384615c-33.476923 0-59.076923 35.446154-59.076923 78.769231s25.6 78.769231 59.076923 78.769231 59.076923-35.446154 59.076923-78.769231-25.6-78.769231-59.076923-78.769231z m354.461538 0c-33.476923 0-59.076923 35.446154-59.076923 78.769231s25.6 78.769231 59.076923 78.769231 59.076923-35.446154 59.076923-78.769231-25.6-78.769231-59.076923-78.769231zM216.615385 571.076923c11.815385 149.661538 122.092308 275.692308 293.415384 275.692308 173.292308 0 285.538462-126.030769 297.353846-275.692308H216.615385z" p-id="3301" fill="#8a8a8a"></path></svg>