<?xml version="1.0" standalone="no"?><!DOCTYPE svg PUBLIC "-//W3C//DTD SVG 1.1//EN" "http://www.w3.org/Graphics/SVG/1.1/DTD/svg11.dtd"><svg t="1558235132273" class="icon" style="" viewBox="0 0 1024 1024" version="1.1" xmlns="http://www.w3.org/2000/svg" p-id="1980" xmlns:xlink="http://www.w3.org/1999/xlink" width="200" height="200"><defs><style type="text/css"></style></defs><path d="M724.6336 665.344a42.8032 42.8032 0 0 1 0 59.9808c-10.9056 5.4528-16.3584 10.9056-27.264 10.9056-10.9056 0-27.264 0-32.7168-10.9056L512 572.672l-152.6784 152.6528c0 5.4528-21.7856 10.9056-27.2384 10.9056-10.9056 0-27.264 0-32.7168-10.9056a42.752 42.752 0 0 1 0-59.9808l152.6528-152.6528-152.6528-152.6528a42.7776 42.7776 0 0 1 0-59.9808 42.7776 42.7776 0 0 1 59.9552 0L512 452.736l152.6528-152.6784a42.8032 42.8032 0 0 1 59.9808 0c16.3584 16.3584 16.3584 43.6224 0 59.9808l-152.6528 152.6528 152.6528 152.6528zM512 0C229.632 0 0 229.6576 0 512c0 282.368 229.632 512 512 512 286.1312 0 512-229.632 512-512C1024 229.6576 794.368 0 512 0z" fill="#4f4f4f" p-id="1981"></path></svg>